<svg width="68" height="68" viewBox="0 0 68 68" fill="none" xmlns="http://www.w3.org/2000/svg">
<g id="Group 107">

<path id="Vector" opacity="0.7" d="M39.4444 11H28.5556C27.7 11 27 11.7 27 12.5556V23.4444C27 24.3008 27.7 25 28.5556 25H34V19.5556H32.4444V17.6306H34V16.0361C34 14.353 34.9427 13.1708 36.9291 13.1708L38.3314 13.1723V15.1984H37.4004C36.6273 15.1984 36.3333 15.7787 36.3333 16.3169V17.6313H38.3307L37.8889 19.5556H36.3333V25H39.4444C40.3 25 41 24.3008 41 23.4444V12.5556C41 11.7 40.3 11 39.4444 11Z" fill="#000958"/>
</g>

</svg>
